# xmcd
#
# Track frame offsets: 
#        150
#        11626
#        22388
#        34393
#        45255
#        55688
#        67026
#        79060
#        89669
#        100160
#        111457
#        123290
#        133708
#        144425
#        155686
#        167385
#        178328
#        190339
#        200829
#        212727
#        222345
#        235971
#        247166
#        258356
#        270771
#
# Disc length: 3753 seconds
#
# Revision: 0
# Processed by: cddbd v1.5.1PL2 Copyright (c) Steve Scherf et al.
# Submitted via: ExactAudioCopy v0.95b3
#
DISCID=780ea719
DTITLE=Various Artist - You All Come! East Texas Honky Tonk
DYEAR=1900
DGENRE=Country
TTITLE0=Bob Heppler - If You Don't Mind
TTITLE1=Patsy Elshire - Someday I Know He Will
TTITLE2=Arlie Duff - You All Come
TTITLE3=Blackie Crawford (Inst Acc: The Western Cherokees) - Huckleber
TTITLE3=ry Pie
TTITLE4=Bob Heppler - I Don't Like It
TTITLE5=Jack Rhodes with Freddie Franks - Gypsy Heart
TTITLE6=Patsy Elshire - Pieces Of A Heart
TTITLE7=Sonny Burns - Too Hot To Handle
TTITLE8=Arlie Duff - Poor Ole Teacher
TTITLE9=The Western Cherokees - Cherokee Steel Guitar
TTITLE10=The Western Cherokees - Hot Check Baby
TTITLE11=Mary Jo Chelette - Cat Fishing
TTITLE12=Arlie Duff - Stuck-In-A-Mud Hole
TTITLE13=Bob Heppler - One Step Ahead
TTITLE14=The Western Cherokees - Left Over Love
TTITLE15=Sonny Burns - Tho' You're In My Arms
TTITLE16=Blackie Crawford and The Western Cherokees - Stop Boogie Woog
TTITLE16=ie
TTITLE17=Patsy Elshire - You Can't Play In My Play House
TTITLE18=Billie Harbert - Ain't That Whiskey Hot
TTITLE19=Jack Rhodes with Al Petty - Al's Steel Guitar Wobble
TTITLE20="Smilin'" Jerry Jericho - Moanin' In The Morning
TTITLE21=Sonny Burns - Blue, Blue, Rain
TTITLE22=Arlie and Lois Duff - A Million Tears
TTITLE23=Bill Potter - I Lost My Gal
TTITLE24=Mary Jo Chelette amd The Western Cherokees - Son Of Mexican J
TTITLE24=oe
EXTD=
EXTT0=
EXTT1=
EXTT2=
EXTT3=
EXTT4=
EXTT5=
EXTT6=
EXTT7=
EXTT8=
EXTT9=
EXTT10=
EXTT11=
EXTT12=
EXTT13=
EXTT14=
EXTT15=
EXTT16=
EXTT17=
EXTT18=
EXTT19=
EXTT20=
EXTT21=
EXTT22=
EXTT23=
EXTT24=
PLAYORDER=
